# xmcd
# 
# Track frame offsets:
#     150
#     24422
#     42307
#     66157
#     86210
#     109242
#     128135
#     147715
#     167895
#     182052
#     208442
#     224625
#     236757
#     258425
#     277922
#     293885
#     310735
#     323262
#     345952
# 
# Disc length: 4722
# 
# Revision: 13
# Processed by: cddbd v1.5.2PL0 Copyright (c) Steve Scherf et al.
# Submitted via: BonkEnc v1.0.8
# 
DISCID=2a127013
DTITLE=東芝EMI - 〜the most relaxing〜 feel2
DYEAR=0
DGENRE=Other
TTITLE0=エニグマ/エイジ･オブ･ロンリネス(カーリーの歌)
TTITLE1=アディエマス/聖なる海の歌声
TTITLE2=S.E.N.S./人と時の風の中へ
TTITLE3=エンヤ/オリノコ･フロウ
TTITLE4=シセル･フィーチャリング･ザンフィル/Summer Snow
TTITLE5=サラ・ブライトマン/スカボロー・フェア
TTITLE6=喜多朗/エストレイヤ
TTITLE7=ヴァネッサ･メイ/リトル･スコティッシュ･ファンタジー
TTITLE8=アンドレ･ギャニオン/愛につつまれて
TTITLE9=リーチェ/オギヨディオラ(OST Version)
TTITLE10=coba/ 過ぎ去りし永遠の日々
TTITLE11=小野リサ/ムーンライト･セレナーデ
TTITLE12=高橋アキ/エナジー･フロー
TTITLE13=清家千晶フィーチャリングORIENTA/スミレ〜word of air version〜
TTITLE14=パオラ･フォッリ/アヴェ･マリア
TTITLE15=マドレデウス/海と旋律
TTITLE16=葉加瀬太郎meetsフォーエバー･タンゴ/リベルタンゴ
TTITLE17=タスミン･リトル･アンド･イアン･サザーランド指揮 ニュー･ワールド･フィルハーモニー管弦楽団/シンドラーのリスト
TTITLE18=東義秀樹/星空につつまれて(TV-Size Edit)
EXTD=
EXTT0=
EXTT1=
EXTT2=
EXTT3=
EXTT4=
EXTT5=
EXTT6=
EXTT7=
EXTT8=
EXTT9=
EXTT10=
EXTT11=
EXTT12=
EXTT13=
EXTT14=
EXTT15=
EXTT16=
EXTT17=
EXTT18=
PLAYORDER=
